<mxfile host="65bd71144e">
    <diagram id="48_NPKYhb1O3OnlRgyV2" name="Page-1">
        <mxGraphModel dx="1386" dy="450" grid="1" gridSize="10" guides="1" tooltips="1" connect="1" arrows="1" fold="1" page="1" pageScale="1" pageWidth="850" pageHeight="1100" math="0" shadow="0">
            <root>
                <mxCell id="0"/>
                <mxCell id="1" parent="0"/>
                <mxCell id="4" value="Get start note of interval, e.g. C, C#" style="rounded=1;whiteSpace=wrap;html=1;" vertex="1" parent="1">
                    <mxGeometry x="60" y="80" width="120" height="60" as="geometry"/>
                </mxCell>
                <mxCell id="5" value="Find start position of start note in chromatic scale, e.g. C = 0, C# = 1" style="rounded=1;whiteSpace=wrap;html=1;" vertex="1" parent="1">
                    <mxGeometry x="60" y="170" width="120" height="60" as="geometry"/>
                </mxCell>
                <mxCell id="6" value="Calculate degree of scale from interval, e.g. unison = 1, minor 3rd = 3, octave = 8" style="rounded=1;whiteSpace=wrap;html=1;" vertex="1" parent="1">
                    <mxGeometry x="60" y="370" width="120" height="60" as="geometry"/>
                </mxCell>
                <mxCell id="7" value="Find natural of start note, e,g, C# = C" style="rounded=1;whiteSpace=wrap;html=1;" vertex="1" parent="1">
                    <mxGeometry x="60" y="270" width="120" height="60" as="geometry"/>
                </mxCell>
                <mxCell id="8" value="Calculate natural note name of degree of scale from natural of start note, e.g C# minor 3rd = E" style="rounded=1;whiteSpace=wrap;html=1;" vertex="1" parent="1">
                    <mxGeometry x="60" y="470" width="120" height="80" as="geometry"/>
                </mxCell>
                <mxCell id="9" value="" style="rounded=1;whiteSpace=wrap;html=1;" vertex="1" parent="1">
                    <mxGeometry x="60" y="590" width="120" height="60" as="geometry"/>
                </mxCell>
            </root>
        </mxGraphModel>
    </diagram>
</mxfile>